<?xml version="1.0" encoding="UTF-8"?> <svg xmlns="http://www.w3.org/2000/svg" xmlns:xlink="http://www.w3.org/1999/xlink" version="1.1" id="Layer_1" x="0px" y="0px" viewBox="0 0 841.89 595.28" style="enable-background:new 0 0 841.89 595.28;" xml:space="preserve"> <style type="text/css"> .st0{fill:#00A693;} </style> <g> <path class="st0" d="M539.57,208.2c17.02,0,33.16-0.01,49.29,0c9.8,0.01,13.51,3.64,13.54,13.61c0.13,46.77,0.19,93.54,0.28,140.3 c0.01,6.66,0.21,13.32,0,19.97c-0.74,23.54-21.99,41.17-45.53,39.43c-16.89-1.25-33.93-0.53-50.9-0.53 c-73.73-0.03-147.47-0.42-221.2,0.21c-25.01,0.22-43.02-19.28-45.23-42.21c-0.16-1.65-0.21-3.32-0.22-4.99 c-0.21-69.22-0.44-138.44-0.49-207.67c0-2.13,1.39-4.55,2.77-6.35c4.7-6.1,10.92-7.59,18.69-7.56c86.55,0.3,173.1,0.19,259.64,0.19 c12.87,0,19.35,6.38,19.35,19.07C539.57,183.62,539.57,195.56,539.57,208.2z M260.66,174.45c0,1.86,0,3.17,0,4.49 c0,52.78-0.02,105.55,0.01,158.33c0.01,12.15,0.08,24.3,0.32,36.45c0.29,14.95,9.58,25.6,22.29,25.6 c78.41,0.02,156.83-0.01,235.24-0.03c1.57,0,3.15-0.16,5.89-0.3c-8.49-11.69-6.7-24.4-6.71-36.78 c-0.05-60.27-0.02-120.54-0.03-180.8c0-2.25,0-4.5,0-6.95C431.67,174.45,346.49,174.45,260.66,174.45z M546.76,392.58 c5.88,6.32,13.79,8.53,20.67,6.1c8.83-3.13,13.42-10.16,13.41-21.12c-0.06-47.94-0.19-95.87-0.31-143.81c0-1.13-0.1-2.26-0.16-3.72 c-13.66,0-27.03,0-40.47,0c0,6.75,0,13.15,0,19.97c2.94,0,5.57,0,8.2,0c7.27-0.01,12.35,4.44,12.33,10.81 c-0.02,6.36-5.11,11-12.25,11.12c-2.76,0.05-5.51,0.01-8.23,0.01c0,6.42,0,12.15,0,18.11c3.2,0,6.01-0.04,8.82,0.01 c6.82,0.12,11.74,4.82,11.65,11.08c-0.09,6.22-5.1,10.84-11.88,10.92c-2.9,0.03-5.81,0.01-8.71,0.01c0,6.4,0,11.99,0,18.07 c3.22,0,6.16-0.04,9.11,0.01c6.39,0.12,11.37,4.82,11.49,10.79c0.13,6.21-4.89,11.09-11.56,11.18c-2.94,0.04-5.89,0.01-9,0.01 c0,6.26,0,11.99,0,17.72c4.56,0.4,8.97,0.21,13.05,1.29c4.77,1.27,7.3,5.17,7.42,10.15C560.49,387.82,556.1,391.47,546.76,392.58z"></path> <path class="st0" d="M444.09,348.54c-15.31,0-30.62,0-45.94,0c-10.43,0-13.91-3.35-13.92-13.61c-0.02-30.96-0.01-61.91,0.02-92.87 c0.01-8.77,4-12.75,12.88-12.76c31.29-0.04,62.58-0.04,93.87-0.01c8.2,0.01,11.77,3.13,13,11.3c0.32,2.13,0.44,4.3,0.44,6.45 c0.04,28.79,0.06,57.59,0.04,86.38c-0.01,10.95-4.16,15.1-14.96,15.1C474.38,348.54,459.24,348.54,444.09,348.54z M406.11,326.31 c5.38,0,10.33,0,15.27,0c18.29,0.01,36.58-0.08,54.87,0.1c4.01,0.04,5.56-0.99,5.53-5.26c-0.17-21.45-0.16-42.9,0.01-64.35 c0.03-4.06-1.04-5.43-5.29-5.38c-19.29,0.22-38.57,0.09-57.86,0.09c-4.09,0-8.17,0-12.53,0 C406.11,276.6,406.11,301.32,406.11,326.31z"></path> <path class="st0" d="M384.14,191.37c33.79,0,67.58-0.01,101.37,0.01c7.28,0.01,11.98,3.96,12.38,10.22 c0.37,5.79-3.61,10.69-9.48,11.54c-1.47,0.21-2.99,0.13-4.49,0.13c-66.41,0.01-132.83,0.01-199.24,0c-1.83,0-3.68,0.09-5.48-0.16 c-5.54-0.77-9.28-5.08-9.35-10.58c-0.07-5.62,3.4-9.95,8.95-10.87c2.12-0.35,4.31-0.28,6.47-0.28 C318.22,191.37,351.18,191.37,384.14,191.37z"></path> <path class="st0" d="M390.62,382.37c-33.62,0-67.25,0.02-100.87-0.02c-5.93-0.01-9.51-2.48-11.18-7.35 c-1.67-4.88-0.33-9.2,3.72-11.9c2.41-1.61,5.88-2.25,8.88-2.26c39.78-0.15,79.56-0.13,119.35-0.13c26.63,0,53.27-0.01,79.9,0.03 c7.7,0.01,12.52,4.54,12.27,11.3c-0.23,6.14-4.77,10.29-11.69,10.33c-16.98,0.08-33.96,0.03-50.93,0.03c-16.48,0-32.96,0-49.44,0 C390.62,382.38,390.62,382.38,390.62,382.37z"></path> <path class="st0" d="M324.06,262.97c12.82-0.01,25.63-0.04,38.45,0.01c7.71,0.03,12.41,4.01,12.56,10.49 c0.15,6.82-4.5,11.22-12.32,11.24c-25.96,0.05-51.93,0.04-77.89-0.04c-7.47-0.02-12.2-4.44-12.13-10.96 c0.06-6.44,4.89-10.68,12.39-10.71C298.09,262.94,311.08,262.98,324.06,262.97z"></path> <path class="st0" d="M324.17,229.29c12.8,0,25.59-0.02,38.39,0.01c7.58,0.02,12.76,4.52,12.77,10.99 c0.01,6.42-5.2,10.92-12.84,10.92c-25.26,0.03-50.52,0.03-75.78,0c-7.83-0.01-12.81-4.19-12.96-10.74 c-0.16-6.65,5.08-11.18,13.03-11.19C299.25,229.27,311.71,229.28,324.17,229.29z"></path> <path class="st0" d="M324.63,330.08c12.63,0,25.26-0.01,37.89,0.01c7.77,0.02,12.73,4.28,12.76,10.88c0.02,6.51-5.07,11-12.7,11.02 c-25.43,0.04-50.86,0.05-76.29,0c-7.6-0.01-12.69-4.66-12.53-11.19c0.16-6.38,5.1-10.69,12.47-10.72 C299.03,330.04,311.83,330.07,324.63,330.08z"></path> <path class="st0" d="M324.59,318.29c-12.82,0-25.64,0.04-38.46-0.02c-7.39-0.04-12.34-4.44-12.35-10.8 c-0.02-6.4,4.87-10.94,12.24-10.96c25.64-0.07,51.28-0.07,76.92-0.01c7.32,0.02,12.32,4.54,12.37,10.88 c0.05,6.41-4.88,10.87-12.25,10.9C350.23,318.33,337.41,318.29,324.59,318.29z"></path> </g> </svg> 