<svg width="40" height="40" viewBox="0 0 40 40" fill="none" xmlns="http://www.w3.org/2000/svg">
<rect width="40" height="40" fill="white"/>
<path d="M27.5625 11.25H10.6875C9.73828 11.25 9 12.0234 9 12.9375V23.0625C9 24.0117 9.73828 24.75 10.6875 24.75H17.4375L16.5938 28.125H14.0625C13.7461 28.125 13.5 28.4062 13.5 28.6875C13.5 29.0039 13.7461 29.25 14.0625 29.25H24.1875C24.4688 29.25 24.75 29.0039 24.75 28.6875C24.75 28.4062 24.4688 28.125 24.1875 28.125H21.6562L20.8125 24.75H27.5625C28.4766 24.75 29.25 24.0117 29.25 23.0625V12.9375C29.25 12.0234 28.4766 11.25 27.5625 11.25ZM17.7539 28.125L18.3164 25.875H19.9336L20.4961 28.125H17.7539ZM28.125 23.0625C28.125 23.3789 27.8438 23.625 27.5625 23.625H10.6875C10.3711 23.625 10.125 23.3789 10.125 23.0625V12.9375C10.125 12.6562 10.3711 12.375 10.6875 12.375H27.5625C27.8438 12.375 28.125 12.6562 28.125 12.9375V23.0625Z" fill="#019CA7"/>
</svg>
