<svg width="40" height="40" viewBox="0 0 40 40" fill="none" xmlns="http://www.w3.org/2000/svg">
<rect width="40" height="40" fill="white"/>
<path d="M16.375 19.125C18.2383 19.125 19.75 17.6133 19.75 15.75C19.75 13.8867 18.2383 12.375 16.375 12.375C14.5117 12.375 13 13.8867 13 15.75C13 17.6133 14.5117 19.125 16.375 19.125ZM16.375 13.6406C17.5352 13.6406 18.4844 14.5898 18.4844 15.75C18.4844 16.9453 17.5352 17.8594 16.375 17.8594C15.1797 17.8594 14.2656 16.9453 14.2656 15.75C14.2656 14.5898 15.1797 13.6406 16.375 13.6406ZM23.125 21.375C21.2617 21.375 19.75 22.8867 19.75 24.75C19.75 26.6133 21.2617 28.125 23.125 28.125C24.9883 28.125 26.5 26.6133 26.5 24.75C26.5 22.8867 24.9883 21.375 23.125 21.375ZM23.125 26.8594C21.9297 26.8594 21.0156 25.9453 21.0156 24.75C21.0156 23.5898 21.9297 22.6406 23.125 22.6406C24.2852 22.6406 25.2344 23.5898 25.2344 24.75C25.2344 25.9453 24.2852 26.8594 23.125 26.8594ZM25.1992 12.375C25.1289 12.375 25.0938 12.4102 25.0586 12.4805L13.0352 27.8086C12.9297 27.9492 13.0352 28.125 13.2109 28.125H14.2656C14.3359 28.125 14.3711 28.125 14.4414 28.0547L26.4297 12.7266C26.5352 12.5859 26.4648 12.375 26.2891 12.375H25.1992Z" fill="#019CA7"/>
</svg>
