<?xml version="1.0" encoding="utf-8"?>
<!-- Generator: Adobe Illustrator 25.1.0, SVG Export Plug-In . SVG Version: 6.00 Build 0)  -->
<svg version="1.1" id="Layer_1" xmlns="http://www.w3.org/2000/svg" xmlns:xlink="http://www.w3.org/1999/xlink" x="0px" y="0px"
	 viewBox="0 0 100 61.22" style="enable-background:new 0 0 100 61.22;" xml:space="preserve">
<g id="Layer_1_1_">
</g>
<g id="Layer_2_1_">
	<g>
		<g>
			<g>
				<g>
					<defs>
						<path id="SVGID_1_" d="M58.59,31.38V22.1c0-7.84-5.02-14.77-12.51-17.23c-1.77-0.58-3.57-1.07-5.37-1.45
							c-0.68-1.64-2.2-2.86-4.05-3.08c-2.11-0.26-4.26-0.39-6.39-0.39S26,0.08,23.89,0.34c-1.85,0.23-3.37,1.44-4.05,3.08
							c-1.8,0.38-3.61,0.87-5.37,1.45c-1.16,0.38-2.27,0.88-3.33,1.47c-0.43,0.25-0.58,0.79-0.33,1.22
							c0.17,0.29,0.47,0.45,0.78,0.45c0.15,0,0.3-0.04,0.44-0.12c0.95-0.54,1.96-0.99,3-1.33c1.46-0.48,2.94-0.89,4.42-1.23
							c0,0.01,0,0.01,0,0.02c0,0.6,0.11,1.19,0.31,1.74c-1.4,0.32-2.8,0.71-4.17,1.16C9.58,10.23,5.54,15.8,5.54,22.1v7.58
							c-0.63,0.1-1.23,0.28-1.79,0.53V22.1c0-4.73,2.05-9.22,5.61-12.32c0.37-0.32,0.41-0.89,0.09-1.26
							C9.12,8.15,8.56,8.11,8.18,8.43c-3.96,3.44-6.22,8.42-6.22,13.66v9.28c-1.39,1.26-2.27,3.07-2.27,5.09v4.97
							c0,3.78,3.09,6.86,6.89,6.86h1.34c0.4,1.64,1.89,2.86,3.67,2.86c2.08,0,3.78-1.69,3.78-3.76v-16.9c0-2.07-1.69-3.76-3.78-3.76
							c-1.77,0-3.26,1.22-3.67,2.87H7.34v-7.51c0-5.53,3.54-10.41,8.82-12.15c1.5-0.49,3.04-0.91,4.57-1.24
							c0.14,0.15,0.28,0.3,0.43,0.43c0.93,0.82,2.14,1.27,3.37,1.27c0.2,0,0.41-0.01,0.61-0.04c1.69-0.2,3.42-0.31,5.12-0.31
							c1.71,0,3.43,0.11,5.12,0.31c1.45,0.18,2.9-0.28,3.99-1.24c0.15-0.13,0.3-0.28,0.43-0.43c1.54,0.33,3.08,0.75,4.57,1.24
							c5.28,1.74,8.82,6.62,8.82,12.15v7.51H52.6c-0.4-1.64-1.89-2.87-3.67-2.87c-2.08,0-3.78,1.69-3.78,3.76v11.03
							c0,0.49,0.4,0.89,0.9,0.89s0.9-0.4,0.9-0.89V30.49c0-1.09,0.89-1.97,1.98-1.97s1.98,0.88,1.98,1.97v16.89
							c0,1.09-0.89,1.97-1.98,1.97c-0.53,0-1.03-0.21-1.4-0.58c-0.37-0.37-0.58-0.87-0.58-1.4v-2.3c0-0.49-0.4-0.89-0.9-0.89
							c-0.49,0-0.9,0.4-0.9,0.89v2.3c0,1,0.39,1.95,1.11,2.66c0.71,0.71,1.66,1.1,2.67,1.1c1.77,0,3.26-1.22,3.67-2.87h0.56
							c-0.33,3.82-3.56,6.83-7.48,6.83c-1.69,0-3.33-0.57-4.66-1.62c0.04-0.21,0.05-0.43,0.05-0.66c0-2.28-1.87-4.14-4.16-4.14
							s-4.16,1.85-4.16,4.14c0,2.26,1.83,4.09,4.08,4.13c2.38,2.23,5.58,3.5,8.83,3.5c7.11,0,12.88-5.75,12.88-12.82v-1.13
							c1.39-1.26,2.27-3.07,2.27-5.08v-4.97C60.86,34.44,59.98,32.63,58.59,31.38L58.59,31.38L58.59,31.38z M9.61,30.49
							c0-1.09,0.89-1.97,1.98-1.97c1.1,0,1.98,0.88,1.98,1.97v16.89c0,1.09-0.89,1.97-1.98,1.97s-1.98-0.88-1.98-1.97l0,0
							L9.61,30.49L9.61,30.49z M7.81,46.5H6.58c-2.81,0-5.1-2.28-5.1-5.07v-4.97c0-2.8,2.29-5.07,5.1-5.07h1.24L7.81,46.5L7.81,46.5
							z M38.2,7.79c-0.71,0.62-1.65,0.91-2.58,0.8c-1.76-0.21-3.56-0.32-5.34-0.32s-3.58,0.11-5.34,0.32
							C24,8.7,23.06,8.41,22.36,7.79s-1.1-1.51-1.1-2.44c0-1.65,1.23-3.04,2.86-3.24c2.04-0.25,4.11-0.37,6.16-0.37
							s4.13,0.13,6.16,0.37c1.63,0.2,2.86,1.59,2.86,3.24C39.3,6.28,38.9,7.17,38.2,7.79L38.2,7.79z M44.95,8.25
							c-1.37-0.45-2.77-0.84-4.17-1.16c0.21-0.55,0.32-1.14,0.32-1.74c0-0.01,0-0.01,0-0.02c1.48,0.34,2.97,0.75,4.42,1.23
							C52.27,8.78,56.8,15.03,56.8,22.1v8.11c-0.56-0.25-1.16-0.43-1.79-0.53V22.1C55,15.8,50.96,10.23,44.95,8.25L44.95,8.25
							L44.95,8.25z M34.58,52.82c0-1.3,1.06-2.35,2.36-2.35s2.36,1.06,2.36,2.35c0,1.3-1.06,2.35-2.36,2.35
							C35.64,55.17,34.58,54.12,34.58,52.82L34.58,52.82z M45.7,58.67c-2.41,0-4.78-0.81-6.7-2.26c0.53-0.3,0.99-0.72,1.35-1.22
							c1.57,1.1,3.43,1.7,5.36,1.7c4.94,0,8.98-3.85,9.28-8.68c0.64-0.09,1.24-0.28,1.81-0.53C56.77,53.74,51.81,58.67,45.7,58.67
							L45.7,58.67L45.7,58.67z M59.06,41.42c0,2.8-2.29,5.07-5.1,5.07h-1.24v-15.1h1.24c2.81,0,5.1,2.27,5.1,5.07V41.42L59.06,41.42
							z"/>
					</defs>
					<use xlink:href="#SVGID_1_"  style="overflow:visible;fill:#009EA9;"/>
					<clipPath id="SVGID_2_">
						<use xlink:href="#SVGID_1_"  style="overflow:visible;"/>
					</clipPath>
				</g>
			</g>
		</g>
		<g>
			<g>
				<g>
					<defs>
						<path id="SVGID_3_" d="M86.4,40.2h-3.19c-0.77,0-1.39-0.63-1.39-1.4v-3.21c0-0.77,0.63-1.4,1.39-1.4h3.19
							c0.77,0,1.39,0.63,1.39,1.4v3.21C87.8,39.57,87.17,40.2,86.4,40.2L86.4,40.2z M85.8,36.19h-1.99v2h1.99V36.19L85.8,36.19z
							 M94.31,24.21h-9.43c-0.77,0-1.39-0.63-1.39-1.4V19.6c0-0.77,0.63-1.4,1.39-1.4h9.43c0.77,0,1.39,0.63,1.39,1.4v3.21
							C95.7,23.58,95.08,24.21,94.31,24.21L94.31,24.21z M93.71,20.2h-8.24v2.01h8.24V20.2L93.71,20.2z M94.37,34.19
							c0.77,0,1.39,0.63,1.39,1.4v3.21c0,0.77-0.63,1.4-1.39,1.4h-3.19c-0.77,0-1.39-0.63-1.39-1.4v-3.21c0-0.77,0.63-1.4,1.39-1.4
							H94.37L94.37,34.19z M91.78,38.2h1.99v-2h-1.99V38.2L91.78,38.2z M82.62,30.82v-3.21c0-0.77,0.63-1.4,1.4-1.4h10.36
							c0.77,0,1.39,0.63,1.39,1.4v3.21c0,0.77-0.63,1.4-1.39,1.4H84.02C83.25,32.22,82.62,31.59,82.62,30.82L82.62,30.82z
							 M84.61,30.22h9.16v-2h-9.16V30.22L84.61,30.22z M99.59,43.59c-0.11,0.21-2.23,3.36-2.33,3.53c-0.43,0.65-1.16,1.04-1.93,1.04
							h-4.37c-0.03,0-0.06,0-0.08,0.01l-14.81,3.92c-0.19,0.05-0.39,0.08-0.59,0.08h-4.44c-0.55,0-1-0.45-1-1s0.45-1,1-1h4.44
							c0.03,0,0.06,0,0.08-0.01l14.81-3.92c0.19-0.05,0.39-0.08,0.59-0.08h4.37c0.11,0,0.21-0.06,0.28-0.15l1.23-1.86H77.19
							l-3.5,3.52c-0.32,0.32-0.73,0.49-1.17,0.49H62.34c0.26-0.68,0.49-1.35,0.66-2h9.37l1.99-2H63.39c0.1-0.66,0.18-1.33,0.25-2
							h34.05V16.19H85.07c-0.55,0-1-0.45-1-1s0.45-1,1-1h12.38l-0.83-3.75c-0.03-0.15-0.17-0.26-0.32-0.26H79.94
							c-0.08,0-0.16,0.03-0.22,0.09l-4.33,3.92h5c0.55,0,1,0.45,1,1s-0.45,1-1,1H60.57c-0.1-0.67-0.21-1.34-0.36-2h12.2l2.21-2
							H59.66c-0.23-0.69-0.5-1.36-0.8-2h17.98l1.55-1.41c0.43-0.39,0.98-0.6,1.56-0.6h16.36c1.1,0,2.03,0.75,2.27,1.83l1.1,4.97
							c0.02,0.11,0.02,0.17,0.02,0.22v27.96C99.69,43.34,99.64,43.48,99.59,43.59L99.59,43.59z M60.97,18.19h3.19
							c0.77,0,1.39,0.63,1.39,1.4v3.21c0,0.77-0.63,1.4-1.39,1.4h-3.19c-0.03,0-0.05-0.01-0.08-0.02c0.09-1.68,0.1-3.77-0.08-5.96
							C60.86,18.22,60.91,18.19,60.97,18.19L60.97,18.19z M61.57,22.2h1.99v-2.01h-1.99V22.2L61.57,22.2z M61.99,30.22h0.7v-2H60.7
							v0.08c-0.13-0.22-0.16-0.3-0.16-0.3s0.1-0.69,0.2-1.79h2.55c0.77,0,1.39,0.63,1.39,1.4v3.21c0,0.77-0.63,1.4-1.39,1.4h-0.18
							c-0.19-0.55-0.41-1.02-0.68-1.39C62.27,30.61,62.13,30.41,61.99,30.22L61.99,30.22z M71.26,26.21c0.77,0,1.39,0.63,1.39,1.4
							v3.21c0,0.77-0.63,1.4-1.39,1.4h-3.19c-0.77,0-1.39-0.63-1.39-1.4v-3.21c0-0.77,0.63-1.4,1.39-1.4L71.26,26.21L71.26,26.21z
							 M68.67,30.22h1.99v-2h-1.99V30.22L68.67,30.22z M68.94,18.19h3.19c0.77,0,1.39,0.63,1.39,1.4v3.21c0,0.77-0.63,1.4-1.39,1.4
							h-3.19c-0.77,0-1.39-0.63-1.39-1.4v-3.21C67.54,18.82,68.17,18.19,68.94,18.19L68.94,18.19z M69.54,22.2h1.99v-2.01h-1.99
							V22.2L69.54,22.2z M78.43,40.16H63.8c0.04-0.68,0.06-1.35,0.06-2h13.97v-1.92H63.81c-0.04-0.71-0.11-1.38-0.21-2h14.83
							c0.77,0,1.4,0.63,1.4,1.4v3.13C79.83,39.53,79.2,40.16,78.43,40.16L78.43,40.16z M76.91,24.21c-0.77,0-1.39-0.63-1.39-1.4
							V19.6c0-0.77,0.63-1.4,1.39-1.4h3.19c0.77,0,1.39,0.63,1.39,1.4v3.21c0,0.77-0.63,1.4-1.39,1.4L76.91,24.21L76.91,24.21z
							 M79.5,20.2h-1.99v2.01h1.99V20.2L79.5,20.2z M79.23,32.22h-3.19c-0.77,0-1.39-0.63-1.39-1.4v-3.21c0-0.77,0.63-1.4,1.39-1.4
							h3.19c0.77,0,1.39,0.63,1.39,1.4v3.21C80.63,31.59,80,32.22,79.23,32.22L79.23,32.22z M78.64,28.21h-1.99v2h1.99V28.21
							L78.64,28.21z M61.46,50.16h4.91c0.55,0,1,0.45,1,1s-0.45,1-1,1h-5.96C60.78,51.52,61.13,50.84,61.46,50.16L61.46,50.16z"/>
					</defs>
					<use xlink:href="#SVGID_3_"  style="overflow:visible;fill:#009EA9;"/>
					<clipPath id="SVGID_4_">
						<use xlink:href="#SVGID_3_"  style="overflow:visible;"/>
					</clipPath>
				</g>
			</g>
		</g>
	</g>
</g>
</svg>
