<?xml version="1.0" encoding="UTF-8"?> <svg xmlns="http://www.w3.org/2000/svg" xmlns:xlink="http://www.w3.org/1999/xlink" version="1.1" id="Layer_1" x="0px" y="0px" viewBox="0 0 1920 1080" style="enable-background:new 0 0 1920 1080;" xml:space="preserve"> <style type="text/css"> .st0{fill:#231F20;} .st1{fill:#252122;} .st2{fill:#242021;} .st3{fill:#EC1F27;} </style> <g> <g> <path class="st0" d="M103.8,862.9c0-220.6,0-439.5,0-664c93,4.1,185.5,3.3,276.7,13.6c85,9.6,130.7,65.6,132.3,151.4 c2.2,116.3,2.3,232.6,0.1,348.9c-1.6,87.3-60.4,144.9-154.3,149.2C274.3,865.9,189.7,862.9,103.8,862.9z M258.3,321.2 c0,142.9,0,282.8,0,422.6c74.2,7,101.4-12.8,102.1-77.1c1-89.5,0.7-179-0.4-268.4c-0.6-52.3-14.9-67-66.6-73.8 C282.4,322.9,271.2,322.3,258.3,321.2z"></path> <path class="st1" d="M1545.7,695.7c-5.1,29.7-7.2,58.6-15.2,85.7c-13.2,44.3-45.8,72.2-89,85.9c-52.8,16.8-107,18.8-160.4,3.4 c-73.3-21-108.4-67.3-109.9-148.1c-1.3-73.2-0.2-146.6,2.5-219.8c2.5-67.5,36.6-113.1,101.1-132.6 c67.9-20.6,136.3-19.7,201.6,12.1c42.7,20.8,66.9,56.3,68.9,103.6c2.2,51.3,0.5,102.8,0.5,156.7c-77.5,0-155.3,0-233.7,0 c0,32.6-1.3,62.9,0.4,92.9c1.5,27.8,17.6,42.7,42.3,43.4c26.5,0.8,40.6-10.9,45.6-39.5c2.4-13.8,2.2-28,3.3-43.7 C1448.8,695.7,1494.1,695.7,1545.7,695.7z M1406.9,548c0-9,0-16.6,0-24.2c-0.1-9.8,0.5-19.7-0.5-29.5 c-2.5-24.3-18.9-40.6-41.9-42.4c-25.5-2.1-43.1,8.3-48.7,33.2c-4.4,20-4.1,41.1-6,62.9C1343.7,548,1373.6,548,1406.9,548z"></path> <path class="st2" d="M977.7,862.9c0-113.4,0-224.9-0.1-336.3c0-8.4-0.8-16.9-1.9-25.2c-2.8-19.7-13.5-29.9-34.4-28.8 c-23.2,1.2-35.1,10.3-37.8,31.5c-1.1,8.3-0.6,16.9-0.6,25.4c0,110.6,0,221.3,0,333.2c-46.5,0-91.9,0-138.5,0 c0-162.9,0-326.1,0-490.2c42.7,0,84.8,0,128.8,0c0,16.7,0,33.9,0,57.4c6.2-9.3,9-13.4,11.7-17.6c45-70.6,154.5-73.3,197.2-3.6 c9.4,15.4,15.1,35.6,15.3,53.7c1.3,131.2,0.7,262.4,0.6,393.5c0,2-0.8,3.9-1.5,7C1070.7,862.9,1025.3,862.9,977.7,862.9z"></path> <path class="st2" d="M1816.2,765.8c0,32.7,0,64.3,0,97.9c-45.3,8-91,15.9-136.8,2.2c-39.8-11.9-64.7-47.2-65.3-93.8 c-1.2-91.6-0.7-183.2-1-274.9c0-7.6,0-15.1,0-24.4c-18.8,0-35.5,0-53.5,0c0-34.2,0-66.8,0-100.9c17,0,33.7,0,52.4,0 c0-47.6,0-93.7,0-141.4c47.5,0,92.8,0,140.2,0c0,45.8,0,92,0,139.9c22,0,42.1,0,63.5,0c0,34.5,0,67.2,0,101.8 c-20.3,0-40.4,0-62.5,0c0,34.1,0,66.4,0,98.6c0,51.5-0.1,102.9,0,154.3c0.1,36.6,5.4,41.8,41.6,40.5 C1801.2,765.7,1807.6,765.8,1816.2,765.8z"></path> <path class="st3" d="M638,500.7c50.1-0.8,93.6,42.4,94.8,94.2c1.1,48.9-41.8,92.6-92.4,94.1c-50.4,1.4-95.8-42.5-95.8-92.7 C544.7,544.9,587.1,501.5,638,500.7z"></path> </g> </g> </svg> 